<?xml version="1.0" encoding="UTF-8" standalone="no"?>
<svg
   shape-rendering="geometricPrecision"
   width="282.82568"
   height="321.02148"
   viewBox="0 0 72.403376 82.1815"
   version="1.1"
   id="svg11"
   sodipodi:docname="c-logo.svg"
   inkscape:version="1.4.2 (f4327f4, 2025-05-13)"
   inkscape:export-filename="colored-logo.png"
   inkscape:export-xdpi="96"
   inkscape:export-ydpi="96"
   xmlns:inkscape="http://www.inkscape.org/namespaces/inkscape"
   xmlns:sodipodi="http://sodipodi.sourceforge.net/DTD/sodipodi-0.dtd"
   xmlns="http://www.w3.org/2000/svg"
   xmlns:svg="http://www.w3.org/2000/svg">
  <defs
     id="defs11" />
  <sodipodi:namedview
     id="namedview11"
     pagecolor="#ffffff"
     bordercolor="#000000"
     borderopacity="0.25"
     inkscape:showpageshadow="2"
     inkscape:pageopacity="0.0"
     inkscape:pagecheckerboard="0"
     inkscape:deskcolor="#d1d1d1"
     inkscape:zoom="0.30325"
     inkscape:cx="1231.657"
     inkscape:cy="-964.5507"
     inkscape:window-width="2560"
     inkscape:window-height="1494"
     inkscape:window-x="-11"
     inkscape:window-y="-11"
     inkscape:window-maximized="1"
     inkscape:current-layer="svg11" />
  <metadata
     id="metadata1">null</metadata>
  <rect width="100%" height="100%" fill="#ffffff" />
  <path
     d="m 0.21937218,37.336395 c 1.02400002,-6.144 2.29100002,-11.608 5.45200002,-17.08 C 14.956372,4.1883948 34.041372,-3.2236052 51.889372,1.3173948 c 6.362,1.618 12.401,4.827 16.951,9.6000002 1.16,1.217 2.877,2.81 3.563,4.35 -0.043,0.415 -1.983,1.502 -2.357,1.775 -2.049,1.498 -3.803,3.389 -5.83,4.91 -1.539,-0.844 -2.744,-3.551 -4.174,-4.752 -4.254,-3.574 -9.608,-5.707 -15.095,-6.428 -4.36,-0.574 -8.804,-0.055 -13.04,1.036 -4.2,1.082 -8.168,3.533 -11.208,6.605 -5.649,5.71 -8.895,12.905 -9.483,20.945 -0.92,12.581 6.598,25.708 18.465,30.272 2.909,1.119 5.958,1.86 9.079,2.019 4.084,0.208 8.282,-0.438 12.099,-1.91 3.817,-1.472 7.336,-3.476 10.311,-6.311 1.121,-1.068 1.852,-2.465 2.911,-3.582 2.127,0.908 3.926,3.348 5.652,4.886 0.828,0.738 2.034,1.469 2.584,2.438 -0.89,1.891 -3.113,3.587 -4.635,4.995 -5.472,5.064 -12.691,8.163 -19.976,9.43 -26.046,4.527 -50.2749998,-17.831 -47.48699982,-44.259 z"
     opacity="1"
     fill="#163860"
     fill-rule="evenodd"
     id="path1" />
</svg>
